<?xml version="1.0" encoding="UTF-8" standalone="no"?>
<!-- Created with Inkscape (http://www.inkscape.org/) -->

<svg
   version="1.1"
   id="svg66634"
   xml:space="preserve"
   width="800"
   height="800"
   viewBox="0 0 800 800"
   sodipodi:docname="glass-table-pdv.svg"
   inkscape:version="1.1.2 (b8e25be833, 2022-02-05)"
   xmlns:inkscape="http://www.inkscape.org/namespaces/inkscape"
   xmlns:sodipodi="http://sodipodi.sourceforge.net/DTD/sodipodi-0.dtd"
   xmlns="http://www.w3.org/2000/svg"
   xmlns:svg="http://www.w3.org/2000/svg"><defs
     id="defs66638"><clipPath
       clipPathUnits="userSpaceOnUse"
       id="clipPath66648"><path
         d="M 0,600 H 600 V 0 H 0 Z"
         id="path66646" /></clipPath></defs><sodipodi:namedview
     id="namedview66636"
     pagecolor="#ffffff"
     bordercolor="#666666"
     borderopacity="1.0"
     inkscape:pageshadow="2"
     inkscape:pageopacity="0.0"
     inkscape:pagecheckerboard="0"
     showgrid="false"
     inkscape:zoom="1.03875"
     inkscape:cx="400"
     inkscape:cy="400"
     inkscape:window-width="1920"
     inkscape:window-height="1018"
     inkscape:window-x="-8"
     inkscape:window-y="-8"
     inkscape:window-maximized="1"
     inkscape:current-layer="g66640" /><g
     id="g66640"
     inkscape:groupmode="layer"
     inkscape:label="glass-table-pdv"
     transform="matrix(1.3333333,0,0,-1.3333333,0,800)"><g
       id="g66642"><g
         id="g66644"
         clip-path="url(#clipPath66648)"><path
           d="M 77.455,218.61 323.301,360.551 569.149,218.61 323.301,76.672 Z"
           style="fill:#dae8eb;fill-opacity:1;fill-rule:evenodd;stroke:none"
           id="path66650" /><path
           d="m 288.765,310.73 v 0 c 14.36,0 26.11,-11.748 26.11,-26.109 V 108.069 c 0,-14.361 -11.75,-26.111 -26.11,-26.111 -14.362,0 -26.113,11.75 -26.113,26.111 v 176.552 c 0,14.361 11.751,26.109 26.113,26.109"
           style="fill:#996633;fill-opacity:1;fill-rule:evenodd;stroke:none"
           id="path66652" /><path
           d="m 304.787,138.014 v 0 c 3.196,0 5.813,2.616 5.813,5.813 v 115.192 c 0,3.198 -2.617,5.813 -5.813,5.813 -3.198,0 -5.814,-2.615 -5.814,-5.813 V 143.827 c 0,-3.197 2.616,-5.813 5.814,-5.813"
           style="fill:#8a5928;fill-opacity:1;fill-rule:evenodd;stroke:none"
           id="path66654" /><path
           d="m 304.787,111.103 v 0 c 3.196,0 5.813,2.614 5.813,5.812 v 6.439 c 0,3.197 -2.617,5.812 -5.813,5.812 -3.198,0 -5.814,-2.615 -5.814,-5.812 v -6.439 c 0,-3.198 2.616,-5.812 5.814,-5.812"
           style="fill:#8a5928;fill-opacity:1;fill-rule:evenodd;stroke:none"
           id="path66656" /><path
           d="m 271.977,264.832 v 0 c 3.196,0 5.813,-2.615 5.813,-5.813 v -6.439 c 0,-3.196 -2.617,-5.812 -5.813,-5.812 -3.199,0 -5.813,2.616 -5.813,5.812 v 6.439 c 0,3.198 2.614,5.813 5.813,5.813 m 0,-26.912 v 0 c 3.196,0 5.813,-2.616 5.813,-5.813 V 116.915 c 0,-3.196 -2.617,-5.812 -5.813,-5.812 -3.199,0 -5.813,2.616 -5.813,5.812 v 115.192 c 0,3.197 2.614,5.813 5.813,5.813"
           style="fill:#b8814a;fill-opacity:1;fill-rule:evenodd;stroke:none"
           id="path66658" /><path
           d="m 451.709,402.895 v 0 c 14.361,0 26.11,-11.749 26.11,-26.11 V 200.232 c 0,-14.361 -11.749,-26.111 -26.11,-26.111 -14.361,0 -26.11,11.75 -26.11,26.111 v 176.553 c 0,14.361 11.749,26.11 26.11,26.11"
           style="fill:#996633;fill-opacity:1;fill-rule:evenodd;stroke:none"
           id="path66660" /><path
           d="m 467.732,230.178 v 0 c 3.197,0 5.812,2.615 5.812,5.812 v 115.193 c 0,3.196 -2.615,5.812 -5.812,5.812 -3.198,0 -5.814,-2.616 -5.814,-5.812 V 235.99 c 0,-3.197 2.616,-5.812 5.814,-5.812"
           style="fill:#8a5928;fill-opacity:1;fill-rule:evenodd;stroke:none"
           id="path66662" /><path
           d="m 467.732,203.266 v 0 c 3.197,0 5.812,2.615 5.812,5.813 v 6.437 c 0,3.198 -2.615,5.814 -5.812,5.814 -3.198,0 -5.814,-2.616 -5.814,-5.814 v -6.437 c 0,-3.198 2.616,-5.813 5.814,-5.813"
           style="fill:#8a5928;fill-opacity:1;fill-rule:evenodd;stroke:none"
           id="path66664" /><path
           d="m 434.922,356.995 v 0 c 3.197,0 5.813,-2.616 5.813,-5.812 v -6.439 c 0,-3.197 -2.616,-5.813 -5.813,-5.813 -3.198,0 -5.815,2.616 -5.815,5.813 v 6.439 c 0,3.196 2.617,5.812 5.815,5.812 m 0,-26.912 v 0 c 3.197,0 5.813,-2.614 5.813,-5.812 V 209.079 c 0,-3.197 -2.616,-5.813 -5.813,-5.813 -3.198,0 -5.815,2.616 -5.815,5.813 v 115.192 c 0,3.198 2.617,5.812 5.815,5.812"
           style="fill:#b8814a;fill-opacity:1;fill-rule:evenodd;stroke:none"
           id="path66666" /><path
           d="m 126.515,402.895 v 0 c 14.361,0 26.11,-11.749 26.11,-26.11 V 200.232 c 0,-14.361 -11.749,-26.111 -26.11,-26.111 -14.362,0 -26.112,11.75 -26.112,26.111 v 176.553 c 0,14.361 11.75,26.11 26.112,26.11"
           style="fill:#996633;fill-opacity:1;fill-rule:evenodd;stroke:none"
           id="path66668" /><path
           d="m 142.537,230.178 h 0.001 c 3.197,0 5.812,2.615 5.812,5.813 v 115.192 c 0,3.196 -2.615,5.812 -5.812,5.812 h -0.001 c -3.197,0 -5.813,-2.616 -5.813,-5.812 V 235.991 c 0,-3.198 2.616,-5.813 5.813,-5.813"
           style="fill:#8a5928;fill-opacity:1;fill-rule:evenodd;stroke:none"
           id="path66670" /><path
           d="m 142.537,203.267 h 0.001 c 3.197,0 5.812,2.614 5.812,5.812 v 6.437 c 0,3.198 -2.615,5.814 -5.812,5.814 h -0.001 c -3.197,0 -5.813,-2.616 -5.813,-5.814 v -6.437 c 0,-3.198 2.616,-5.812 5.813,-5.812"
           style="fill:#8a5928;fill-opacity:1;fill-rule:evenodd;stroke:none"
           id="path66672" /><path
           d="m 109.726,330.083 v 0 c 3.198,0 5.813,-2.614 5.813,-5.812 V 209.079 c 0,-3.197 -2.615,-5.812 -5.813,-5.812 -3.196,0 -5.812,2.615 -5.812,5.812 v 115.192 c 0,3.198 2.616,5.812 5.812,5.812"
           style="fill:#b8814a;fill-opacity:1;fill-rule:evenodd;stroke:none"
           id="path66674" /><path
           d="m 109.726,356.995 v 0 c 3.198,0 5.813,-2.614 5.813,-5.812 v -6.439 c 0,-3.197 -2.615,-5.813 -5.813,-5.813 -3.196,0 -5.812,2.616 -5.812,5.813 v 6.439 c 0,3.198 2.616,5.812 5.812,5.812"
           style="fill:#b8814a;fill-opacity:1;fill-rule:evenodd;stroke:none"
           id="path66676" /><path
           d="m 143.117,356.995 h 0.002 c 3.196,0 5.813,-2.614 5.813,-5.812 v -6.439 c 0,-3.197 -2.617,-5.813 -5.813,-5.813 h -0.002 c -3.197,0 -5.811,2.616 -5.811,5.813 v 6.439 c 0,3.198 2.614,5.812 5.811,5.812"
           style="fill:#87521d;fill-opacity:1;fill-rule:evenodd;stroke:none"
           id="path66678" /><path
           d="M 41.554,413.524 287.4,555.463 533.247,413.524 287.4,271.585 Z"
           style="fill:#a8e2f0;fill-opacity:1;fill-rule:evenodd;stroke:none"
           id="path66680" /><path
           d="m 477.428,381.296 -51.829,-29.923 v 25.412 c 0,14.361 11.749,26.11 26.11,26.11 12.823,0 23.565,-9.369 25.719,-21.599"
           style="fill:#9fc9d4;fill-opacity:1;fill-rule:evenodd;stroke:none"
           id="path66682" /><path
           d="m 152.625,349.397 -52.084,30.072 c 1.355,13.113 12.518,23.426 25.974,23.426 14.361,0 26.11,-11.749 26.11,-26.11 z"
           style="fill:#9fc9d4;fill-opacity:1;fill-rule:evenodd;stroke:none"
           id="path66684" /><path
           d="M 405.784,487.116 441.88,466.274 388.659,330.046 331.537,297.067 Z m -65.577,37.86 -90.492,-231.633 37.685,-21.758 13.671,7.894 85.46,218.751 z m -127.28,-12.51 74.473,42.997 31.751,-18.33 -90.493,-231.633 -78.811,45.501 z"
           style="fill:#bbedfa;fill-opacity:1;fill-rule:evenodd;stroke:none"
           id="path66686" /><path
           d="m 149.847,351.001 2.778,7.112 v -8.716 z"
           style="fill:#b3d9e3;fill-opacity:1;fill-rule:evenodd;stroke:none"
           id="path66688" /><path
           d="m 287.4,523.758 v 31.705 L 41.554,413.524 V 381.82 Z"
           style="fill:#98d4e3;fill-opacity:1;fill-rule:evenodd;stroke:none"
           id="path66690" /><path
           d="m 287.4,523.758 v 31.705 l -74.473,-42.997 -15.993,-40.937 z"
           style="fill:#a5dfed;fill-opacity:1;fill-rule:evenodd;stroke:none"
           id="path66692" /><path
           d="m 41.554,381.82 v 31.704 L 287.4,271.585 v -31.704 z"
           style="fill:#8ccbdb;fill-opacity:1;fill-rule:evenodd;stroke:none"
           id="path66694" /><path
           d="m 100.541,379.469 52.084,-30.072 v -31.704 l -52.222,30.151 v 28.941 c 0,0.905 0.047,1.801 0.138,2.684"
           style="fill:#8ab4bf;fill-opacity:1;fill-rule:evenodd;stroke:none"
           id="path66696" /><path
           d="m 140.268,356.531 8.038,-4.64 c 0.029,-0.233 0.044,-0.469 0.044,-0.708 v -31.022 l -11.626,6.713 v 24.309 c 0,2.393 1.466,4.461 3.544,5.348"
           style="fill:#87a8b0;fill-opacity:1;fill-rule:evenodd;stroke:none"
           id="path66698" /><path
           d="m 113.464,340.302 -9.55,5.515 v 5.366 c 0,3.196 2.616,5.812 5.812,5.812 3.197,0 5.813,-2.616 5.813,-5.812 v -6.439 c 0,-1.775 -0.809,-3.373 -2.075,-4.442"
           style="fill:#a2c6cf;fill-opacity:1;fill-rule:evenodd;stroke:none"
           id="path66700" /><path
           d="M 249.715,293.343 287.4,271.585 v -31.704 l -37.685,21.757 z m -99.868,57.658 78.811,-45.501 v -31.704 l -78.811,45.501 z"
           style="fill:#9cdded;fill-opacity:1;fill-rule:evenodd;stroke:none"
           id="path66702" /><path
           d="m 149.847,351.001 2.778,-1.604 v -31.704 l -2.778,1.604 z"
           style="fill:#95c1cc;fill-opacity:1;fill-rule:evenodd;stroke:none"
           id="path66704" /><path
           d="M 41.554,413.524 V 381.82 l 27.457,15.852 z"
           style="fill:#78bbcc;fill-opacity:1;fill-rule:evenodd;stroke:none"
           id="path66706" /><path
           d="m 287.4,523.758 v 31.705 L 533.247,413.524 V 381.82 Z"
           style="fill:#8acbdb;fill-opacity:1;fill-rule:evenodd;stroke:none"
           id="path66708" /><path
           d="m 405.784,487.116 36.096,-20.842 -10.106,-25.869 -36.096,20.841 z m -65.577,37.86 46.324,-26.746 -10.105,-25.868 -46.324,26.745 z M 287.4,523.758 v 31.705 l 31.751,-18.33 -10.107,-25.87 z"
           style="fill:#99d8e8;fill-opacity:1;fill-rule:evenodd;stroke:none"
           id="path66710" /><path
           d="m 533.247,381.82 v 31.704 L 287.4,271.585 v -31.704 z"
           style="fill:#6eb7c9;fill-opacity:1;fill-rule:evenodd;stroke:none"
           id="path66712" /><path
           d="m 477.428,381.296 -51.829,-29.923 v -31.704 l 52.22,30.15 v 26.966 c 0,1.537 -0.135,3.046 -0.391,4.511"
           style="fill:#769aa3;fill-opacity:1;fill-rule:evenodd;stroke:none"
           id="path66714" /><path
           d="m 461.918,340.639 11.626,6.712 v 3.832 c 0,3.196 -2.615,5.812 -5.812,5.812 -3.198,0 -5.814,-2.616 -5.814,-5.812 z"
           style="fill:#6d9099;fill-opacity:1;fill-rule:evenodd;stroke:none"
           id="path66716" /><path
           d="m 429.107,321.697 10.472,6.044 c -1.064,1.419 -2.757,2.342 -4.657,2.342 -3.198,0 -5.815,-2.614 -5.815,-5.812 z m 6.205,35.284 -5.603,-3.234 c -0.385,-0.774 -0.602,-1.646 -0.602,-2.564 v -6.439 c 0,-3.197 2.617,-5.813 5.815,-5.813 3.197,0 5.813,2.616 5.813,5.813 v 6.439 c 0,3.065 -2.406,5.597 -5.423,5.798"
           style="fill:#84a7b0;fill-opacity:1;fill-rule:evenodd;stroke:none"
           id="path66718" /><path
           d="M 301.071,279.479 287.4,271.585 v -31.704 l 13.671,7.893 z m 87.588,50.567 -57.122,-32.979 v -31.704 l 57.122,32.979 z"
           style="fill:#85c8d9;fill-opacity:1;fill-rule:evenodd;stroke:none"
           id="path66720" /><path
           d="M 533.247,413.524 V 381.82 l -27.458,15.852 z"
           style="fill:#5aa3b5;fill-opacity:1;fill-rule:evenodd;stroke:none"
           id="path66722" /><path
           d="m 148.306,351.891 -8.038,4.64 c 0.699,0.298 1.465,0.464 2.269,0.464 2.957,0 5.416,-2.238 5.769,-5.104"
           style="fill:#94b9c2;fill-opacity:1;fill-rule:evenodd;stroke:none"
           id="path66724" /><path
           d="m 288.765,498.007 v 0 c 14.36,0 26.11,-11.748 26.11,-26.11 V 295.346 c 0,-14.36 -11.75,-26.112 -26.11,-26.112 -14.362,0 -26.113,11.752 -26.113,26.112 v 176.551 c 0,14.362 11.751,26.11 26.113,26.11"
           style="fill:#9fc9d4;fill-opacity:1;fill-rule:evenodd;stroke:none"
           id="path66726" /><path
           d="M 314.875,460.131 262.652,326.46 v -31.112 c 0,-3.865 0.853,-7.538 2.375,-10.845 l 22.373,-12.918 13.671,7.894 13.804,35.333 z m -12.512,34.03 -39.711,-101.647 v 79.383 c 0,14.362 11.751,26.11 26.113,26.11 4.972,0 9.63,-1.408 13.598,-3.846"
           style="fill:#b3d9e3;fill-opacity:1;fill-rule:evenodd;stroke:none"
           id="path66728" /><path
           d="m 304.787,298.378 v 0 c 3.196,0 5.813,2.617 5.813,5.814 v 6.438 c 0,3.197 -2.617,5.813 -5.813,5.813 -3.198,0 -5.814,-2.616 -5.814,-5.813 v -6.438 c 0,-3.197 2.616,-5.814 5.814,-5.814 m 0,26.913 v 0 c 3.196,0 5.813,2.616 5.813,5.813 v 115.191 c 0,3.199 -2.617,5.813 -5.813,5.813 -3.198,0 -5.814,-2.614 -5.814,-5.813 V 331.104 c 0,-3.197 2.616,-5.813 5.814,-5.813"
           style="fill:#94b9c2;fill-opacity:1;fill-rule:evenodd;stroke:none"
           id="path66730" /><path
           d="m 271.977,425.196 v 0 c 3.196,0 5.813,-2.614 5.813,-5.812 V 304.192 c 0,-3.197 -2.617,-5.813 -5.813,-5.813 -3.199,0 -5.813,2.616 -5.813,5.813 v 115.192 c 0,3.198 2.614,5.812 5.813,5.812 m 0,26.914 v 0 c 3.196,0 5.813,-2.616 5.813,-5.815 v -6.438 c 0,-3.197 -2.617,-5.813 -5.813,-5.813 -3.199,0 -5.813,2.616 -5.813,5.813 v 6.438 c 0,3.199 2.614,5.815 5.813,5.815"
           style="fill:#b1d7e0;fill-opacity:1;fill-rule:evenodd;stroke:none"
           id="path66732" /><path
           d="m 277.79,365.204 v -61.012 c 0,-3.197 -2.617,-5.813 -5.813,-5.813 -3.199,0 -5.813,2.616 -5.813,5.813 v 31.251 z m -2.72,59.095 -8.906,-22.8 v 17.885 c 0,3.198 2.614,5.812 5.813,5.812 1.133,0 2.195,-0.328 3.093,-0.897 m -3.093,27.811 v 0 c 3.196,0 5.813,-2.616 5.813,-5.815 v -6.438 c 0,-3.197 -2.617,-5.813 -5.813,-5.813 -3.199,0 -5.813,2.616 -5.813,5.813 v 6.438 c 0,3.199 2.614,5.815 5.813,5.815"
           style="fill:#bcebf7;fill-opacity:1;fill-rule:evenodd;stroke:none"
           id="path66734" /><path
           d="m 304.787,298.378 v 0 c 1.816,0 3.443,0.845 4.513,2.16 l 1.288,3.301 c 0.009,0.117 0.012,0.235 0.012,0.353 v 6.438 c 0,3.197 -2.617,5.813 -5.813,5.813 -3.198,0 -5.814,-2.616 -5.814,-5.813 v -6.438 c 0,-3.197 2.616,-5.814 5.814,-5.814 m 0,26.913 v 0 c 3.196,0 5.813,2.616 5.813,5.813 v 115.191 c 0,0.699 -0.124,1.369 -0.353,1.989 l -11.274,-28.855 v -88.325 c 0,-3.197 2.616,-5.813 5.814,-5.813"
           style="fill:#bcebf7;fill-opacity:1;fill-rule:evenodd;stroke:none"
           id="path66736" /><path
           d="M 314.729,287.363 287.4,271.585 262.684,285.856 c 0.65,13.792 12.133,24.874 26.081,24.874 13.435,0 24.582,-10.283 25.964,-23.367"
           style="fill:#8fb9c4;fill-opacity:1;fill-rule:evenodd;stroke:none"
           id="path66738" /><path
           d="m 288.765,310.73 v 0 c 8.334,0 15.788,-3.956 20.577,-10.084 l -8.271,-21.167 -13.671,-7.894 -24.716,14.271 c 0.65,13.792 12.133,24.874 26.081,24.874"
           style="fill:#a5cfd9;fill-opacity:1;fill-rule:evenodd;stroke:none"
           id="path66740" /><path
           d="m 262.652,254.168 v 30.453 c 0,0.414 0.013,0.824 0.032,1.235 L 287.4,271.585 v -31.704 z"
           style="fill:#8ab4bf;fill-opacity:1;fill-rule:evenodd;stroke:none"
           id="path66742" /><path
           d="m 274.481,247.338 -8.301,4.795 c -0.012,0.146 -0.016,0.299 -0.016,0.447 v 6.439 c 0,3.198 2.614,5.813 5.813,5.813 3.196,0 5.813,-2.615 5.813,-5.813 v -6.439 c 0,-2.301 -1.355,-4.301 -3.309,-5.242"
           style="fill:#a2c6cf;fill-opacity:1;fill-rule:evenodd;stroke:none"
           id="path66744" /><path
           d="M 314.729,287.363 287.4,271.585 v -31.704 l 27.475,15.862 v 28.878 c 0,0.926 -0.051,1.84 -0.146,2.742"
           style="fill:#769aa3;fill-opacity:1;fill-rule:evenodd;stroke:none"
           id="path66746" /><path
           d="M 301.071,279.479 287.4,271.585 v -31.704 l 13.671,7.893 z"
           style="fill:#7da6b0;fill-opacity:1;fill-rule:evenodd;stroke:none"
           id="path66748" /></g></g></g></svg>
